<svg width="263" height="192" xmlns="http://www.w3.org/2000/svg" xmlns:xlink="http://www.w3.org/1999/xlink" overflow="hidden"><defs><clipPath id="clip0"><rect x="383" y="264" width="263" height="192"/></clipPath><clipPath id="clip1"><rect x="384" y="265" width="261" height="190"/></clipPath><clipPath id="clip2"><rect x="384" y="265" width="261" height="190"/></clipPath><clipPath id="clip3"><rect x="384" y="265" width="512" height="190"/></clipPath></defs><g clip-path="url(#clip0)" transform="translate(-383 -264)"><g clip-path="url(#clip1)"><g clip-path="url(#clip2)"><g clip-path="url(#clip3)"><path d="M41.1718 19.555C37.7653 18.5842 34.2372 18.107 30.6952 18.1379 21.8593 18.1379 14.5348 20.6957 8.72166 25.8112 5.89157 28.2448 3.63526 31.2746 2.11464 34.6833 0.675573 38.0507-0.0440198 41.6816 0.00199281 45.3432 0.00197797 45.8667 0.0149369 46.39 0.0408576 46.9128 0.261397 53.8874 3.41329 60.4456 8.72166 64.975 12.0643 67.9223 16.0285 70.0781 20.3193 71.282 23.6975 72.2179 27.1899 72.6778 30.6952 72.6483 39.4647 72.6483 46.7394 70.0905 52.5193 64.9749 58.2992 59.8594 61.1891 53.3155 61.1891 45.3432 61.1893 44.8468 61.1776 44.3504 61.1542 43.8544 60.943 36.8929 57.8082 30.3427 52.5193 25.8112 49.2489 22.9082 45.3723 20.7709 41.1718 19.555ZM30.6952 29.7973C28.8447 29.7826 26.9997 30.0023 25.2043 30.4511 22.6548 31.0862 20.2982 32.3326 18.3382 34.0824 15.4429 36.6519 13.7271 40.2957 13.5907 44.1643 13.5668 44.5569 13.5548 44.95 13.5548 45.3432 13.5361 47.1368 13.8025 48.9219 14.3441 50.6318 15.1086 52.9765 16.4879 55.0733 18.3382 56.7037 20.6806 58.7813 23.5655 60.15 26.6563 60.65 27.99 60.8811 29.3416 60.9945 30.6952 60.9888 32.5945 61.0046 34.4874 60.7667 36.3236 60.2813 38.7842 59.6276 41.0556 58.4017 42.9526 56.7037 45.7542 54.2104 47.4511 50.7066 47.6702 46.9626 47.7144 46.424 47.7364 45.8837 47.7359 45.3432 47.7359 40.6928 46.1415 36.9392 42.9526 34.0824 40.5286 31.9298 37.5262 30.5359 34.3176 30.0734 33.1194 29.8855 31.9081 29.7932 30.6952 29.7973Z" fill="#FF861C" fill-rule="evenodd" transform="matrix(1 0 0 1.00348 384 265.2)"/><path d="M82.9135 65.2739 82.9135 89.2904 68.9621 89.2904 68.9621 19.1344 82.9135 19.1344 82.9135 25.5122C84.1888 24.1311 85.6625 22.9476 87.2863 22.0005 88.531 21.269 89.8351 20.6436 91.1848 20.131 94.6394 18.8023 98.4262 18.1379 102.545 18.1379 105.657 18.1109 108.759 18.5048 111.765 19.3088 116.062 20.4635 119.99 22.7025 123.173 25.8112 127.987 30.4691 130.794 36.8206 130.998 43.5156 131.03 44.1243 131.046 44.7337 131.046 45.3432 131.08 48.6189 130.571 51.8775 129.539 54.9867 128.243 58.7755 126.061 62.1999 123.173 64.9749 117.925 70.0905 111.049 72.6483 102.545 72.6483 100.08 72.6599 97.6201 72.3989 95.2117 71.87 93.8415 71.5642 92.4955 71.1581 91.1848 70.6552 89.7003 70.0928 88.2719 69.3922 86.9186 68.5625 85.4377 67.6571 84.0898 66.5503 82.9135 65.2739ZM82.3156 45.0443 82.3156 45.7419C82.2589 49.6854 83.8696 53.4697 86.7512 56.1626 86.9777 56.3822 87.21 56.5959 87.4478 56.8034 90.4531 59.4245 94.2418 60.9769 98.2223 61.218 98.8317 61.265 99.4427 61.2883 100.054 61.2878 102.043 61.3043 104.026 61.0512 105.947 60.5354 108.45 59.8583 110.764 58.6156 112.71 56.903 115.747 54.2616 117.543 50.471 117.663 46.4474 117.683 46.0797 117.693 45.7115 117.693 45.3432 117.714 43.4427 117.402 41.553 116.773 39.7597 115.943 37.4859 114.544 35.4627 112.71 33.8831 109.388 30.96 105.169 29.4984 100.054 29.4984 97.9736 29.4805 95.9019 29.7665 93.9043 30.3474 91.502 31.0587 89.2823 32.2819 87.3979 33.9329 84.0097 36.8893 82.3156 40.5931 82.3156 45.0443Z" fill="#FF861C" fill-rule="evenodd" transform="matrix(1 0 0 1.00348 384 265.2)"/><path d="M196.12 44.845 196.12 49.2297 149.681 49.2297C150.545 52.9501 152.538 55.8899 155.66 58.049 157.723 59.4547 160.058 60.4124 162.514 60.8603 164.065 61.1525 165.641 61.2957 167.22 61.2878 169.075 61.2999 170.923 61.0728 172.72 60.6121 174.304 60.2001 175.823 59.5724 177.235 58.7466 180.125 57.0525 182.168 54.7107 183.364 51.7211L195.223 56.8034C193.894 60.0686 191.775 62.9521 189.054 65.1942 187.7 66.3297 186.246 67.3403 184.709 68.2137 180.282 70.7302 175.341 72.2083 170.26 72.5366 169.248 72.6114 168.234 72.6486 167.22 72.6482 163.82 72.6756 160.43 72.2687 157.132 71.4375 152.604 70.2987 148.411 68.1009 144.898 65.0248 139.62 60.5003 136.489 53.9645 136.271 47.0164 136.242 46.4592 136.228 45.9012 136.228 45.3432 136.176 41.4487 137.005 37.5927 138.653 34.0635 140.175 30.9321 142.317 28.1418 144.948 25.861 150.761 20.7123 158.152 18.1379 167.121 18.1379 170.178 18.1137 173.226 18.4668 176.197 19.1892 180.668 20.2631 184.785 22.4757 188.147 25.6119 193.078 30.1918 195.942 36.5745 196.085 43.3023 196.108 43.8162 196.12 44.3306 196.12 44.845ZM150.18 39.7627 182.368 39.7627C182.051 37.8948 181.201 36.1583 179.92 34.7631 179.171 33.92 178.26 33.1284 177.186 32.3883 174.733 30.7137 171.894 29.691 168.936 29.4167 168.168 29.3373 167.395 29.298 166.622 29.2991 164.857 29.2874 163.097 29.4864 161.379 29.892 159.529 30.3311 157.765 31.0736 156.159 32.0894 153.236 33.9496 151.242 36.5073 150.18 39.7627Z" fill="#FF861C" fill-rule="evenodd" transform="matrix(1 0 0 1.00348 384 265.2)"/><path d="M217.744 45.8415 217.744 71.5521 203.793 71.5521 203.793 19.1344 217.744 19.1344 217.744 25.7115C219.87 23.3199 222.594 21.4597 225.916 20.131 229.238 18.8023 232.892 18.1379 236.878 18.1379 243.854 18.1379 249.401 20.3303 253.52 24.715 256.265 27.6735 258.149 31.3263 258.968 35.2783 259.47 37.6029 259.715 39.9756 259.698 42.3536L259.698 71.5521 245.747 71.5521 245.747 45.6422C245.747 40.9253 244.568 37.2547 242.209 34.6305 240.498 32.74 238.209 31.4685 235.7 31.0141 234.578 30.7947 233.437 30.6876 232.294 30.6942 230.825 30.6827 229.359 30.8408 227.926 31.1656 225.512 31.6886 223.305 32.911 221.581 34.6803 219.189 37.1657 217.915 40.5811 217.76 44.9267 217.75 45.2315 217.744 45.5365 217.744 45.8415Z" fill="#FF861C" fill-rule="evenodd" transform="matrix(1 0 0 1.00348 384 265.2)"/><path d="M340.218 71.5521 270.959 71.5521 270.959 0.000996533 340.218 0.000996533 340.218 12.657 285.409 12.657 285.409 28.6015 334.538 28.6015 334.538 41.1578 285.409 41.1578 285.409 58.8961 340.218 58.8961 340.218 71.5521Z" fill="#258BB0" fill-rule="evenodd" transform="matrix(1 0 0 1.00348 126.894 365.199)"/><path d="M364.235 28.5018 410.175 28.5018 410.175 0.000996533 424.924 0.000996533 424.924 71.5521 410.175 71.5521 410.175 41.1578 364.235 41.1578 364.235 71.5521 349.586 71.5521 349.586 0.000996533 364.235 0.000996533 364.235 28.5018Z" fill="#258BB0" fill-rule="evenodd" transform="matrix(1 0 0 1.00348 126.894 365.199)"/><path d="M364.235 28.5018 410.175 28.5018 410.175 0.000996533 424.924 0.000996533 424.924 71.5521 410.175 71.5521 410.175 41.1578 364.235 41.1578 364.235 71.5521 349.586 71.5521 349.586 0.000996533 364.235 0.000996533 364.235 28.5018Z" fill="#258BB0" fill-rule="evenodd" transform="matrix(1 0 0 1.00348 126.894 365.199)"/><path d="M494.382 71.5521 477.541 44.9446 452.029 44.9446 452.029 71.5521 437.38 71.5521 437.38 0.000996533 482.324 0.000996533C488.622 0.000996533 493.909 1.08489 498.184 3.25268 499.651 3.99234 501.033 4.89024 502.304 5.93037 506.242 9.14779 508.754 13.7871 509.296 18.8434 509.454 20.0634 509.532 21.2925 509.529 22.5226 509.547 24.7133 509.267 26.8963 508.699 29.0121 508.015 31.5317 506.822 33.8847 505.194 35.926 503.142 38.4666 500.53 40.4982 497.562 41.8624 496.088 42.554 494.557 43.1184 492.987 43.5495L511.223 71.5521 494.382 71.5521ZM481.527 12.4577 452.029 12.4577 452.029 32.6873 481.527 32.6873C482.768 32.6934 484.008 32.6072 485.236 32.4292 486.572 32.2285 487.783 31.9103 488.867 31.4745 489.784 31.1122 490.649 30.6321 491.442 30.0465 493.458 28.5813 494.73 26.3052 494.921 23.8201 494.961 23.4221 494.98 23.0223 494.98 22.6223 494.991 21.5326 494.839 20.4473 494.529 19.4025 494.006 17.6784 492.941 16.169 491.492 15.0985 490.42 14.3051 489.219 13.7023 487.942 13.3167 486.128 12.744 483.99 12.4577 481.527 12.4577Z" fill="#258BB0" fill-rule="evenodd" transform="matrix(1 0 0 1.00348 126.894 365.199)"/></g></g></g></g></svg>