<svg width="513.002" height="89.601" viewBox="0 0 513.002 89.601" xmlns="http://www.w3.org/2000/svg">
<g id="svgGroup" stroke-linecap="round" fill-rule="evenodd" font-size="9pt" fill="#ff861c" style="fill:#ff861c">
<path d="M 41.315 19.623 A 37.174 37.174 0 0 0 30.802 18.201 Q 17.502 18.201 8.752 25.901 A 25.377 25.377 0 0 0 2.122 34.804 A 26.377 26.377 0 0 0 0.002 45.501 A 31.786 31.786 0 0 0 0.041 47.076 A 24.859 24.859 0 0 0 8.752 65.201 A 29.747 29.747 0 0 0 20.39 71.53 A 37.807 37.807 0 0 0 30.802 72.901 Q 44.002 72.901 52.702 65.201 Q 61.402 57.501 61.402 45.501 A 31.502 31.502 0 0 0 61.367 44.007 A 24.835 24.835 0 0 0 52.702 25.901 A 29.516 29.516 0 0 0 41.315 19.623 Z M 30.802 29.901 A 21.998 21.998 0 0 0 25.292 30.557 A 16.241 16.241 0 0 0 18.402 34.201 A 14.195 14.195 0 0 0 13.638 44.318 A 19.448 19.448 0 0 0 13.602 45.501 A 16.989 16.989 0 0 0 14.394 50.808 A 13.839 13.839 0 0 0 18.402 56.901 A 16.566 16.566 0 0 0 26.749 60.861 A 23.176 23.176 0 0 0 30.802 61.201 A 21.403 21.403 0 0 0 36.45 60.491 A 16.217 16.217 0 0 0 43.102 56.901 A 14.195 14.195 0 0 0 47.836 47.126 A 19.636 19.636 0 0 0 47.902 45.501 Q 47.902 38.501 43.102 34.201 A 16.621 16.621 0 0 0 34.437 30.178 A 22.962 22.962 0 0 0 30.802 29.901 Z" id="0" vector-effect="non-scaling-stroke"/><path d="M 83.202 65.501 L 83.202 89.601 L 69.202 89.601 L 69.202 19.201 L 83.202 19.201 L 83.202 25.601 A 19.006 19.006 0 0 1 87.59 22.077 A 25.811 25.811 0 0 1 91.502 20.201 Q 96.702 18.201 102.902 18.201 A 34.648 34.648 0 0 1 112.154 19.376 A 26.067 26.067 0 0 1 123.602 25.901 A 25.818 25.818 0 0 1 131.454 43.667 A 34.428 34.428 0 0 1 131.502 45.501 A 29.766 29.766 0 0 1 129.99 55.178 A 25.232 25.232 0 0 1 123.602 65.201 Q 115.702 72.901 102.902 72.901 A 33.562 33.562 0 0 1 95.543 72.12 A 28.778 28.778 0 0 1 91.502 70.901 A 25.419 25.419 0 0 1 87.221 68.801 A 18.804 18.804 0 0 1 83.202 65.501 Z M 82.602 45.201 L 82.602 45.901 A 14.036 14.036 0 0 0 87.053 56.358 A 18.127 18.127 0 0 0 87.752 57.001 A 18.116 18.116 0 0 0 98.564 61.431 A 23.619 23.619 0 0 0 100.402 61.501 A 22.104 22.104 0 0 0 106.316 60.746 A 16.99 16.99 0 0 0 113.102 57.101 A 14.474 14.474 0 0 0 118.072 46.609 A 19.831 19.831 0 0 0 118.102 45.501 A 16.364 16.364 0 0 0 117.179 39.898 A 14.215 14.215 0 0 0 113.102 34.001 Q 108.102 29.601 100.402 29.601 A 21.441 21.441 0 0 0 94.231 30.453 A 17.407 17.407 0 0 0 87.702 34.051 Q 82.602 38.501 82.602 45.201 Z" id="1" vector-effect="non-scaling-stroke"/><path d="M 196.802 45.001 L 196.802 49.401 L 150.202 49.401 Q 151.502 55.001 156.202 58.251 A 17.924 17.924 0 0 0 163.079 61.072 A 24.84 24.84 0 0 0 167.802 61.501 A 21.65 21.65 0 0 0 173.321 60.823 A 17.915 17.915 0 0 0 177.852 58.951 Q 182.202 56.401 184.002 51.901 L 195.902 57.001 A 21.326 21.326 0 0 1 189.712 65.421 A 29.391 29.391 0 0 1 185.352 68.451 A 33.744 33.744 0 0 1 170.852 72.789 A 41.151 41.151 0 0 1 167.802 72.901 A 40.096 40.096 0 0 1 157.679 71.686 A 29.589 29.589 0 0 1 145.402 65.251 A 24.83 24.83 0 0 1 136.745 47.18 A 32.405 32.405 0 0 1 136.702 45.501 A 25.934 25.934 0 0 1 139.135 34.182 A 25.861 25.861 0 0 1 145.452 25.951 Q 154.202 18.201 167.702 18.201 A 37.294 37.294 0 0 1 176.81 19.256 A 26.737 26.737 0 0 1 188.802 25.701 A 24.954 24.954 0 0 1 196.767 43.453 A 33.591 33.591 0 0 1 196.802 45.001 Z M 150.702 39.901 L 183.002 39.901 A 9.845 9.845 0 0 0 180.546 34.884 Q 179.419 33.615 177.802 32.501 A 17.559 17.559 0 0 0 169.524 29.519 A 22.307 22.307 0 0 0 167.202 29.401 A 22.26 22.26 0 0 0 161.94 29.996 A 17.265 17.265 0 0 0 156.702 32.201 Q 152.302 35.001 150.702 39.901 Z" id="2" vector-effect="non-scaling-stroke"/><path d="M 218.502 46.001 L 218.502 71.801 L 204.502 71.801 L 204.502 19.201 L 218.502 19.201 L 218.502 25.801 Q 221.702 22.201 226.702 20.201 Q 231.702 18.201 237.702 18.201 Q 248.202 18.201 254.402 24.801 A 22.208 22.208 0 0 1 259.869 35.401 A 32.58 32.58 0 0 1 260.602 42.501 L 260.602 71.801 L 246.602 71.801 L 246.602 45.801 Q 246.602 38.701 243.052 34.751 A 11.599 11.599 0 0 0 236.52 31.122 A 17.289 17.289 0 0 0 233.102 30.801 A 19.15 19.15 0 0 0 228.719 31.274 A 12.62 12.62 0 0 0 222.352 34.801 Q 218.751 38.542 218.518 45.083 A 25.797 25.797 0 0 0 218.502 46.001 Z" id="3" vector-effect="non-scaling-stroke"/><path d="M 341.402 71.801 L 271.902 71.801 L 271.902 0.001 L 341.402 0.001 L 341.402 12.701 L 286.402 12.701 L 286.402 28.701 L 335.702 28.701 L 335.702 41.301 L 286.402 41.301 L 286.402 59.101 L 341.402 59.101 L 341.402 71.801 Z" id="4" vector-effect="non-scaling-stroke"/><path d="M 365.502 28.601 L 411.602 28.601 L 411.602 0.001 L 426.402 0.001 L 426.402 71.801 L 411.602 71.801 L 411.602 41.301 L 365.502 41.301 L 365.502 71.801 L 350.802 71.801 L 350.802 0.001 L 365.502 0.001 L 365.502 28.601 Z" id="5" vector-effect="non-scaling-stroke"/>
</g>
<g id="svgGroup" stroke-linecap="round" fill-rule="evenodd" font-size="9pt" fill="#258bb0" style="fill:#258bb0">
<path d="M 341.402 71.801 L 271.902 71.801 L 271.902 0.001 L 341.402 0.001 L 341.402 12.701 L 286.402 12.701 L 286.402 28.701 L 335.702 28.701 L 335.702 41.301 L 286.402 41.301 L 286.402 59.101 L 341.402 59.101 L 341.402 71.801 Z" id="4" vector-effect="non-scaling-stroke"/><path d="M 365.502 28.601 L 411.602 28.601 L 411.602 0.001 L 426.402 0.001 L 426.402 71.801 L 411.602 71.801 L 411.602 41.301 L 365.502 41.301 L 365.502 71.801 L 350.802 71.801 L 350.802 0.001 L 365.502 0.001 L 365.502 28.601 Z" id="5" vector-effect="non-scaling-stroke"/>
<path d="M 365.502 28.601 L 411.602 28.601 L 411.602 0.001 L 426.402 0.001 L 426.402 71.801 L 411.602 71.801 L 411.602 41.301 L 365.502 41.301 L 365.502 71.801 L 350.802 71.801 L 350.802 0.001 L 365.502 0.001 L 365.502 28.601 Z" id="5" vector-effect="non-scaling-stroke"/>
<path d="M 496.102 71.801 L 479.202 45.101 L 453.602 45.101 L 453.602 71.801 L 438.902 71.801 L 438.902 0.001 L 484.002 0.001 Q 493.482 0.001 499.917 3.264 A 22.611 22.611 0 0 1 504.052 5.951 A 19.402 19.402 0 0 1 511.068 18.909 A 28.142 28.142 0 0 1 511.302 22.601 A 24.364 24.364 0 0 1 510.469 29.113 A 19.197 19.197 0 0 1 506.952 36.051 A 21.264 21.264 0 0 1 499.293 42.008 A 28.695 28.695 0 0 1 494.702 43.701 L 513.002 71.801 L 496.102 71.801 Z M 483.202 12.501 L 453.602 12.501 L 453.602 32.801 L 483.202 32.801 A 25.084 25.084 0 0 0 486.924 32.542 Q 488.936 32.24 490.568 31.584 A 11.404 11.404 0 0 0 493.152 30.151 A 8.531 8.531 0 0 0 496.643 23.903 A 11.937 11.937 0 0 0 496.702 22.701 A 10.957 10.957 0 0 0 496.25 19.47 A 8.402 8.402 0 0 0 493.202 15.151 A 11.652 11.652 0 0 0 489.64 13.363 Q 486.909 12.501 483.202 12.501 Z" id="6" vector-effect="non-scaling-stroke"/>
</g>
</svg>